<?xml version="1.0" encoding="UTF-8"?> <svg xmlns="http://www.w3.org/2000/svg" width="56.889" height="60" viewBox="0 0 56.889 60"><path id="Path_2" data-name="Path 2" d="M4.975,43.244H7.469V21.173H4.975Zm16.853-32.1a3.01,3.01,0,1,1,6.019,0H30.23a5.393,5.393,0,1,0-5.393,5.393h0a4.43,4.43,0,1,1,0,8.861h0a4.43,4.43,0,0,1-4.43-4.431H17.913a6.87,6.87,0,0,0,6.925,6.813h0a6.814,6.814,0,1,0,0-13.627h0a3.009,3.009,0,0,1-3.01-3.009M31.762,36.32h0a6.814,6.814,0,1,0-13.627,0,3.01,3.01,0,1,1-3.01-3.01V30.927a5.393,5.393,0,1,0,5.393,5.393h0a4.43,4.43,0,1,1,8.861,0h0a4.43,4.43,0,0,1-4.43,4.43v2.494a6.87,6.87,0,0,0,6.813-6.925m2.8-8.463h2.494V5.786H34.562ZM42.35,54.734a8.5,8.5,0,1,1,8.5,8.5,8.5,8.5,0,0,1-8.5-8.5m-2.515,0A11.015,11.015,0,1,0,50.85,43.72,11.014,11.014,0,0,0,39.835,54.734M59.37,43.244h2.494V21.173H59.37a9.256,9.256,0,0,0-8.511,5.708,9.253,9.253,0,0,0-8.508-5.708H39.856V43.244H42.35V23.819a6.761,6.761,0,0,1,6.761,6.761V33.4h3.5V30.58a6.761,6.761,0,0,1,6.761-6.761Z" transform="translate(-4.975 -5.749)"></path></svg> 